<svg version="1" xmlns="http://www.w3.org/2000/svg" width="666.667" height="666.667" viewBox="0 0 500.000000 500.000000"><path d="M219 1.5c-38.2 5-75.5 18.8-106.5 39.3-12.2 8.1-20.6 14.8-32 25.2-35.8 33-61.1 75.2-73 122.2C1.9 209.9.7 219.9.4 246c-.2 26.2.3 33.5 4.2 53 18.7 94.6 91.1 170.4 185.1 194 24.7 6.1 58.9 8.6 84.8 6.1 64.6-6.3 125.6-38.5 167.4-88.5 27.1-32.3 45.3-70.3 53.5-111.6 3.8-19.2 4.5-27.5 4.2-53.5-.3-25.5-1.6-36-7.1-57.3-12.5-49.1-39.7-93.3-78-126.7-35.8-31.2-78.9-51.3-127-59.1C273.8.2 233.2-.3 219 1.5z"/></svg>