<?xml version="1.0" standalone="no"?>
<!DOCTYPE svg PUBLIC "-//W3C//DTD SVG 20010904//EN"
 "http://www.w3.org/TR/2001/REC-SVG-20010904/DTD/svg10.dtd">
<svg version="1.0" xmlns="http://www.w3.org/2000/svg"
 width="600.000000pt" height="600.000000pt" viewBox="0 0 600.000000 600.000000"
 preserveAspectRatio="xMidYMid meet">
<metadata>
Created by potrace 1.11, written by Peter Selinger 2001-2013
</metadata>
<g transform="translate(0.000000,600.000000) scale(0.100000,-0.100000)"
fill="#000000" stroke="none">
<path d="M2718 5845 c-2 -2 -25 -6 -53 -9 -101 -13 -246 -38 -320 -56 -704
-169 -1312 -591 -1716 -1190 -92 -136 -159 -257 -250 -455 -68 -148 -164 -461
-184 -605 -3 -25 -10 -63 -15 -85 -19 -89 -25 -192 -25 -440 0 -223 8 -395 19
-414 2 -4 7 -31 10 -61 26 -214 159 -620 273 -828 14 -26 41 -76 61 -112 130
-239 387 -556 592 -730 14 -12 36 -31 50 -43 158 -138 432 -313 635 -407 196
-90 522 -195 665 -215 14 -2 86 -14 122 -20 108 -20 644 -29 753 -12 28 4 66
10 85 12 20 3 47 8 60 10 14 3 41 8 60 11 121 20 353 87 510 148 88 34 303
138 377 182 278 165 522 365 713 586 40 46 80 92 89 103 118 135 314 463 400
669 37 88 99 260 106 291 2 11 16 63 30 115 14 52 27 109 30 125 3 17 12 66
20 110 26 142 30 206 30 475 0 312 -2 336 -51 580 -204 1020 -979 1862 -1984
2158 -108 32 -330 80 -410 88 -25 3 -67 9 -95 14 -45 8 -579 13 -587 5z"/>
</g>
</svg>
